<svg preserveAspectRatio="none" width="100%" height="100%" overflow="visible" style="display: block;" viewBox="0 0 61 36" fill="none" xmlns="http://www.w3.org/2000/svg">
<path id="BOLT" fill-rule="evenodd" clip-rule="evenodd" d="M49.0292 27.0694H42.6917V1.36111L49.0292 0.0138889V27.0694ZM30.9971 20.7083C32.7506 20.7083 34.1589 19.2917 34.1589 17.5417V17.5278C34.1589 15.7778 32.7506 14.3472 30.9971 14.3472C29.2435 14.3472 27.8352 15.7639 27.8352 17.5278C27.8352 19.2917 29.2435 20.7083 30.9971 20.7083ZM30.9971 7.70833C36.3957 7.70833 40.7587 12.0972 40.7587 17.5417C40.7587 22.9583 36.3818 27.3611 30.9832 27.3611C25.5847 27.3611 21.2216 22.9444 21.2216 17.5278C21.2216 12.1111 25.5985 7.70833 30.9971 7.70833ZM30.9971 29.6389C29.2435 29.6389 27.8352 31.0694 27.8352 32.8194C27.8352 34.5694 29.2435 36 30.9971 36C32.7506 36 34.1589 34.5833 34.1589 32.8194C34.1589 31.0556 32.7506 29.6389 30.9971 29.6389ZM11.0871 20.7083H11.1976C12.2884 20.6806 13.1444 19.7639 13.1168 18.6667C13.0892 17.5694 12.1779 16.7083 11.0871 16.7361H6.33748V20.7083H11.0871ZM6.33748 6.375V10.3472H9.85831C10.9491 10.3472 11.8327 9.45833 11.8327 8.36111C11.8327 7.26389 10.9491 6.375 9.85831 6.375H6.33748ZM16.9138 12.7639C18.4878 14.3333 19.3714 16.4722 19.3714 18.6806C19.3852 23.3056 15.6573 27.0556 11.0733 27.0556H0V0H9.8445C11.3909 0 12.8959 0.430556 14.2076 1.25C18.115 3.68056 19.33 8.83333 16.9138 12.7639ZM60.9862 14.4306V8.05556H57.8105V3.19444L51.4869 4.54167V21.0139C51.4869 24.9028 53.8893 27.1389 57.4239 27.3194C57.4516 27.3194 57.5068 27.3333 57.5344 27.3333H57.5896C57.6725 27.3333 57.7415 27.3472 57.8244 27.3472H57.9072C58.9842 27.3472 60.0473 27.0694 61 26.5556V21.8611C60.5444 21.9861 60.0611 22.0556 59.5917 22.0417C58.3214 22.0417 57.8382 20.9306 57.8382 19.4167V14.4167L60.9862 14.4306Z" fill="var(--fill-0, #2A9C64)"/>
</svg>
